<svg width="213" height="20" viewBox="0 0 213 20" fill="none" xmlns="http://www.w3.org/2000/svg">
<g clip-path="url(#clip0_3_4899)">
<path d="M10.0974 15.7828H4.58813L3.70159 17.8856H0L7.33986 2.00562L14.6855 17.8856H10.9839L10.0974 15.7828ZM8.88268 12.9085L7.33986 9.23419L5.79705 12.9085H8.88268Z" fill="white"/>
<path d="M18.4844 9.94862C18.4844 5.54862 22.0708 2.01147 26.5381 2.01147C28.7372 2.01147 30.7578 2.89147 32.3582 4.53719L30.0267 6.85147C29.0826 5.84005 27.9082 5.3029 26.5381 5.3029C23.8785 5.3029 21.8003 7.34862 21.8003 9.94862C21.8003 12.5486 23.8842 14.5943 26.5208 14.5943C27.4822 14.5943 28.3687 14.3258 29.1401 13.8115V11.5715H26.1351V8.32005H32.243V15.6629C30.5851 17.08 28.6796 17.88 26.5611 17.88C22.0708 17.8858 18.4844 14.3429 18.4844 9.94862Z" fill="white"/>
<path d="M47.4938 15.7828H41.9846L41.0981 17.8856H37.3965L44.7363 2.00562L52.0762 17.8856H48.3746L47.4938 15.7828ZM46.2792 12.9085L44.7363 9.23419L43.1935 12.9085H46.2792Z" fill="white"/>
<path d="M57.3438 2.19995H60.6193V17.6914H57.3438V2.19995Z" fill="white"/>
<path d="M70.5256 9.42857V17.6914H67.25V1.81714L76.173 10.5029V2.2H79.4486V18.0743L70.5256 9.42857Z" fill="white"/>
<path d="M102.734 0H106.338L98.0139 19.8914H94.4102L102.734 0Z" fill="white"/>
<path d="M121.57 2.19995H131.593V5.45138H124.852V8.31995H130.827V11.5714H124.852V17.6914H121.576V2.19995H121.57Z" fill="white"/>
<path d="M145.49 15.7829H139.981L139.094 17.8858H135.393L142.732 2.01147L150.072 17.8858H146.371L145.49 15.7829ZM144.275 12.9086L142.732 9.23433L141.19 12.9086H144.275Z" fill="white"/>
<path d="M153.666 13.9085L156.694 12.5485C156.832 13.8285 157.713 14.6513 158.87 14.6513C159.929 14.6513 160.66 13.9599 160.66 12.9485C160.66 10.4228 154.535 11.1885 154.535 6.29133C154.535 3.78276 156.383 2.00562 158.968 2.00562C161.012 2.00562 162.704 3.17133 163.343 4.97133L160.494 6.23419C160.263 5.56561 159.722 5.10847 159.031 5.10847C158.283 5.10847 157.799 5.56561 157.799 6.21704C157.799 8.37704 163.948 7.84561 163.948 12.9885C163.948 15.8399 161.846 17.8856 158.956 17.8856C156.4 17.8856 154.207 16.257 153.666 13.9085Z" fill="white"/>
<path d="M172.19 5.45138H168.373V2.19995H179.259V5.45138H175.465V17.6914H172.19V5.45138Z" fill="white"/>
<path d="M184.891 2.19995H194.913V5.45138H188.172V8.31995H194.147V11.5714H188.172V14.44H194.913V17.6914H184.891V2.19995Z" fill="white"/>
<path d="M208.982 17.6914L205.937 12.24H204.336V17.6914H201.061V2.19995H206.978C209.851 2.19995 212.027 4.34281 212.027 7.21138C212.027 9.25709 210.951 10.92 209.293 11.7257L212.781 17.6914H208.982ZM204.342 8.98852H206.984C208.061 8.98852 208.757 8.29709 208.757 7.21138C208.757 6.14281 208.067 5.45138 206.984 5.45138H204.342V8.98852Z" fill="white"/>
</g>
<defs>
<clipPath id="clip0_3_4899">
<rect width="213" height="20" fill="white"/>
</clipPath>
</defs>
</svg>
