<svg width="8" height="8" viewBox="0 0 8 8" fill="none" xmlns="http://www.w3.org/2000/svg">
<path d="M3.46967 4L0.234835 7.23484C0.0883884 7.38128 0.0883884 7.61872 0.234835 7.76516C0.381282 7.91161 0.618718 7.91161 0.765165 7.76516L4 4.53033L7.23483 7.76516C7.38128 7.91161 7.61872 7.91161 7.76517 7.76516C7.91161 7.61872 7.91161 7.38128 7.76517 7.23484L4.53033 4L7.76517 0.765165C7.91161 0.618718 7.91161 0.381282 7.76517 0.234835C7.61872 0.0883883 7.38128 0.0883883 7.23483 0.234835L4 3.46967L0.765165 0.234835C0.618718 0.0883883 0.381282 0.0883883 0.234835 0.234835C0.0883884 0.381282 0.0883884 0.618718 0.234835 0.765165L3.46967 4Z" fill="#1A051D"/>
</svg>
