<svg width="16" height="16" viewBox="0 0 16 16" fill="none" xmlns="http://www.w3.org/2000/svg">
<path d="M3.15176 6.19188C3.30356 6.299 3.76114 6.61714 4.52452 7.14614C5.28792 7.67513 5.87273 8.08244 6.27899 8.3681C6.32363 8.39941 6.41845 8.46747 6.56352 8.57239C6.70861 8.67737 6.82917 8.76221 6.9251 8.82692C7.0211 8.89161 7.13715 8.96417 7.27337 9.04451C7.40955 9.12477 7.53792 9.18514 7.65845 9.22511C7.77901 9.2654 7.89061 9.28536 7.99327 9.28536H8H8.00675C8.10941 9.28536 8.22106 9.26538 8.34161 9.22511C8.4621 9.18514 8.59059 9.1247 8.72665 9.04451C8.86278 8.96408 8.97883 8.89158 9.07483 8.82692C9.17083 8.76221 9.29129 8.67737 9.43643 8.57239C9.58147 8.46738 9.67642 8.39941 9.72105 8.3681C10.1317 8.08244 11.1764 7.35697 12.8549 6.19174C13.1808 5.96416 13.4531 5.68956 13.6718 5.36811C13.8907 5.04681 14 4.70974 14 4.3571C14 4.06241 13.8939 3.81016 13.6818 3.60036C13.4698 3.39051 13.2186 3.28564 12.9285 3.28564H3.07138C2.72766 3.28564 2.46314 3.4017 2.27787 3.63381C2.09262 3.86596 2 4.15614 2 4.50432C2 4.78557 2.12281 5.09034 2.36831 5.41844C2.61378 5.74657 2.87502 6.00441 3.15176 6.19188Z" fill="#8F8F8F"/>
<path d="M13.3303 6.90825C11.8661 7.89923 10.7544 8.66939 9.99555 9.21855C9.74109 9.40598 9.53467 9.55229 9.37614 9.65713C9.21761 9.76204 9.00678 9.86918 8.74333 9.97851C8.47999 10.088 8.23456 10.1426 8.00684 10.1426H8.00001H7.99328C7.76561 10.1426 7.52004 10.088 7.25669 9.97851C6.99334 9.86918 6.78237 9.76204 6.62388 9.65713C6.46545 9.55229 6.25895 9.40598 6.00452 9.21855C5.40181 8.77662 4.29245 8.00642 2.67641 6.90825C2.42188 6.73872 2.19643 6.5444 2 6.32568V11.6425C2 11.9373 2.10487 12.1894 2.31471 12.3993C2.52451 12.6092 2.77679 12.7141 3.07145 12.7141H12.9286C13.2232 12.7141 13.4755 12.6092 13.6853 12.3993C13.8952 12.1894 14 11.9373 14 11.6425V6.32568C13.808 6.53987 13.5849 6.73419 13.3303 6.90825Z" fill="#8F8F8F"/>
</svg>
